<svg width="136" height="18" viewBox="0 0 136 18" fill="none" xmlns="http://www.w3.org/2000/svg">
<path d="M3.848 18C2.872 18 2.032 17.656 1.328 16.968C0.64 16.264 0.296 15.424 0.296 14.448V4.272C0.296 3.296 0.64 2.464 1.328 1.776C2.032 1.072 2.872 0.719999 3.848 0.719999H14.024C14.984 0.719999 15.816 1.072 16.52 1.776C17.224 2.464 17.576 3.296 17.576 4.272V14.448C17.576 15.424 17.224 16.264 16.52 16.968C15.816 17.656 14.984 18 14.024 18H3.848ZM4.808 14.256H13.016C13.544 14.256 13.808 14.256 13.808 14.256C13.808 14.256 13.808 13.992 13.808 13.464V5.256C13.808 4.728 13.808 4.464 13.808 4.464C13.808 4.464 13.544 4.464 13.016 4.464H4.808C4.28 4.464 4.016 4.464 4.016 4.464C4.016 4.464 4.016 4.728 4.016 5.256V13.464C4.016 13.992 4.016 14.256 4.016 14.256C4.016 14.256 4.28 14.256 4.808 14.256ZM20.267 18V4.272C20.267 3.296 20.611 2.464 21.299 1.776C22.003 1.072 22.843 0.719999 23.819 0.719999H33.971C34.947 0.719999 35.787 1.072 36.491 1.776C37.195 2.464 37.547 3.296 37.547 4.272V18H33.779V12.432H23.987V18H20.267ZM23.987 8.688H33.779V5.256C33.779 4.728 33.779 4.464 33.779 4.464C33.779 4.464 33.515 4.464 32.987 4.464H24.779C24.251 4.464 23.987 4.464 23.987 4.464C23.987 4.464 23.987 4.728 23.987 5.256V8.688ZM40.3055 18V0.719999H44.0495V7.488H47.4335L53.0975 0.719999H56.9855V2.016L50.8175 9.36L56.9855 16.704V18H53.0975L47.4335 11.232H44.0495V18H40.3055ZM59.4305 18V0.696H63.1505V14.256H76.7105V18H59.4305ZM78.1576 18V4.272C78.1576 3.296 78.5016 2.464 79.1896 1.776C79.8936 1.072 80.7336 0.719999 81.7096 0.719999H91.8616C92.8376 0.719999 93.6776 1.072 94.3816 1.776C95.0856 2.464 95.4376 3.296 95.4376 4.272V18H91.6696V12.432H81.8776V18H78.1576ZM81.8776 8.688H91.6696V5.256C91.6696 4.728 91.6696 4.464 91.6696 4.464C91.6696 4.464 91.4056 4.464 90.8776 4.464H82.6696C82.1416 4.464 81.8776 4.464 81.8776 4.464C81.8776 4.464 81.8776 4.728 81.8776 5.256V8.688ZM98.1721 18V0.719999H102.012L111.684 12.24V0.719999H115.452V18H111.612L101.892 6.432V18H98.1721ZM118.189 18V0.719999H131.893C132.869 0.719999 133.709 1.072 134.413 1.776C135.117 2.464 135.469 3.296 135.469 4.272V14.448C135.469 15.424 135.117 16.264 134.413 16.968C133.709 17.656 132.869 18 131.893 18H118.189ZM122.701 14.256H130.909C131.437 14.256 131.701 14.256 131.701 14.256C131.701 14.256 131.701 13.992 131.701 13.464V5.256C131.701 4.728 131.701 4.464 131.701 4.464C131.701 4.464 131.437 4.464 130.909 4.464H122.701C122.173 4.464 121.909 4.464 121.909 4.464C121.909 4.464 121.909 4.728 121.909 5.256V13.464C121.909 13.992 121.909 14.256 121.909 14.256C121.909 14.256 122.173 14.256 122.701 14.256Z" fill="#111111"/>
</svg>
